<?xml version="1.0" encoding="utf-8"?>
<!-- Generator: Adobe Illustrator 25.0.1, SVG Export Plug-In . SVG Version: 6.00 Build 0)  -->
<svg version="1.1" id="Capa_1" xmlns:serif="http://www.serif.com/"
	 xmlns="http://www.w3.org/2000/svg" xmlns:xlink="http://www.w3.org/1999/xlink" x="0px" y="0px" viewBox="0 0 1920 1080"
	 style="enable-background:new 0 0 1920 1080;" xml:space="preserve">
<style type="text/css">
	.st0{fill:#FFFFFF;stroke:#FFFFFF;stroke-width:2.2594;stroke-linejoin:round;stroke-miterlimit:4.5188;}
</style>
<path class="st0" d="M1461.1,269.9h-192.8V38.6c0-21.3-17.3-38.6-38.6-38.6H689.9c-21.3,0-38.6,17.3-38.6,38.6v231.4H458.6
	c-21.3,0-38.6,17.3-38.6,38.6v501.3c0,21.3,17.3,38.6,38.6,38.6h192.8v192.8c0,21.3,17.3,38.6,38.6,38.6h539.8
	c21.3,0,38.6-17.3,38.6-38.6V848.3h192.8c21.3,0,38.6-17.3,38.6-38.6V308.5C1499.7,287.2,1482.4,269.9,1461.1,269.9z M728.5,77.1
	h462.7v192.8H728.5V77.1z M1191.2,1002.6H728.5v-347h462.7V1002.6z M1422.6,771.2h-154.2V655.5h38.6c21.3,0,38.6-17.3,38.6-38.6
	c0-21.3-17.3-38.6-38.6-38.6H612.8c-21.3,0-38.6,17.3-38.6,38.6c0,21.3,17.3,38.6,38.6,38.6h38.6v115.7H497.1V347h925.5V771.2z"/>
<path class="st0" d="M1345.5,424.2h-38.6c-21.3,0-38.6,17.3-38.6,38.6s17.3,38.6,38.6,38.6h38.6c21.3,0,38.6-17.3,38.6-38.6
	S1366.8,424.2,1345.5,424.2z"/>
<path class="st0" d="M1075.5,732.7H844.2c-21.3,0-38.6,17.3-38.6,38.6c0,21.3,17.3,38.6,38.6,38.6h231.4c21.3,0,38.6-17.3,38.6-38.6
	C1114.1,749.9,1096.8,732.7,1075.5,732.7z"/>
<path class="st0" d="M1075.5,848.3H844.2c-21.3,0-38.6,17.3-38.6,38.6c0,21.3,17.3,38.6,38.6,38.6h231.4c21.3,0,38.6-17.3,38.6-38.6
	C1114.1,865.6,1096.8,848.3,1075.5,848.3z"/>
</svg>
